<?xml version="1.0" encoding="UTF-8"?>
<svg id="Layer_1" data-name="Layer 1" xmlns="http://www.w3.org/2000/svg" viewBox="0 0 256.14 178.88">
  <defs>
    <style>
      .cls-1 {
        fill: #fff;
      }
    </style>
  </defs>
  <path class="cls-1" d="M172.01,96.93c2.18,0,4.36,0,6.54,0,20.91,0,41.81-.02,62.72,.03,1.67,0,3.33,.49,5,.75,.01,.19,.02,.38,.03,.56-11.15,4.09-22.29,8.19-33.95,12.48,14.75,4.98,29.05,9.81,43.8,14.79-2.05,.9-3.7,1.63-5.36,2.34-10.32,4.42-20.64,8.81-30.94,13.26-1.3,.56-2.4,.57-3.75,.09-14.39-5.13-28.8-10.19-43.22-15.24-.53-.19-1.23-.27-1.74-.09-13.82,5.03-27.62,10.1-41.42,15.17-.25,.09-.48,.24-1,.5,16.21,5.92,32.13,11.73,48.34,17.65-.55,.32-.88,.56-1.25,.72-14.52,6.22-29.03,12.45-43.58,18.59-.95,.4-2.33,.47-3.27,.1-16.05-6.39-32.07-12.87-48.1-19.33-.05-.02-.09-.07-.4-.31,15.8-5.8,31.43-11.55,47.44-17.43-.75-.34-1.21-.58-1.7-.76-13.54-4.95-27.08-9.91-40.64-14.8-.82-.3-1.93-.29-2.76,0-14.72,5.04-29.42,10.15-44.14,15.19-.78,.27-1.82,.33-2.56,.04-11.54-4.6-23.04-9.27-34.55-13.93-.4-.16-.79-.36-1.54-.71,14.97-5.18,29.58-10.24,44.19-15.3,.02-.13,.03-.26,.05-.39-11.32-4.14-22.65-8.28-33.97-12.42-.02-.14-.04-.27-.05-.41,1.4-.38,2.81-1.08,4.21-1.09,23.43-.07,46.87-.04,70.3-.04,.11,0,.22,.04,.87,.17-13.55,4.69-26.65,9.23-40.2,13.92,.75,.34,1.16,.56,1.58,.71,12.1,4.41,24.19,8.84,36.31,13.17,.99,.35,2.21,.08,3.33,.08,16.6,0,33.2,0,49.8,0,9.02,0,18.05-.29,27.05,.1,6.55,.28,12.58-.9,18.62-3.31,9.14-3.65,18.44-6.87,27.67-10.28,.51-.19,1.01-.41,1.97-.8-13.57-4.58-26.69-9.01-39.8-13.44,.03-.12,.06-.23,.08-.35Z"/>
  <path class="cls-1" d="M116.75,0c.88,.97,1.85,1.87,2.63,2.92,1.76,2.38,3.99,3.08,6.91,2.71,6.84-.86,13.58-.21,19.81,2.84,11.26,5.51,18.08,14.56,20.15,26.94,1.27,7.59-.14,15.09-1.77,22.49-2.52,11.39-5.21,22.74-7.76,34.13-.27,1.23-.73,1.55-1.92,1.53-3.96-.07-7.91-.03-12.17-.03-.23-2.74-.63-5.4-.64-8.06-.02-7.83,2.73-14.9,6.21-21.75,2.3-4.54,4.79-9.01,5.84-14.07,.94-4.52,.34-8.83-1.57-12.99-.74,3.73-1.29,7.44-2.24,11.05-1.72,6.5-5.46,11.94-9.57,17.14-4.62,5.85-8.52,12.09-10.09,19.5-.62,2.96-1.01,5.96-1.54,9.17-.76,0-1.66,0-2.56,0-8.79,.04-17.57,.07-26.36,.1-2.4,0-3.16-.42-3.5-2.82-.91-6.5,.04-12.61,4.7-17.62,9.11-9.79,18.29-19.51,27.42-29.29,2.4-2.57,3.43-5.55,2.06-8.99-1.08-2.71-2.98-3.55-5.78-2.75-6.4,1.82-12.17,4.99-17.78,8.46-.68,.42-1.08,1.56-1.27,2.44-.3,1.4-.97,1.99-2.38,1.81-3.57-.44-6.23-2.28-7.88-5.42-1.49-2.85-.91-5.62,1.58-7.94,5.95-5.57,11.93-11.11,17.94-16.61,.84-.77,1.16-1.55,1.15-2.68-.06-4-.02-8.01-.02-12.01,.14-.06,.28-.12,.41-.18Z"/>
  <path class="cls-1" d="M163.8,111.83h7.59v7.86H84.66v-7.82h7.53c0-1.93,.13-3.7-.03-5.44-.29-3.15,.8-5.75,2.45-8.37,1.17-1.85,2.38-2.42,4.51-2.4,18.32,.09,36.63,.07,54.95,.03,1.31,0,2.26,.31,3.14,1.3,1.59,1.8,3.31,3.5,4.96,5.25,2.03,2.15,2.39,4.73,1.87,7.52-.11,.61-.15,1.23-.25,2.08Z"/>
  <path class="cls-1" d="M218.56,63.85v-21.99h-6.12v22h-17.52v-1.87c0-8.96-.02-17.92,.02-26.87,0-1.2-.36-1.73-1.48-2.27-2.46-1.18-4.8-2.62-7.1-4.09-.52-.33-.98-1.2-.99-1.83-.08-5.22-.04-10.45-.03-15.68,0-.22,.09-.43,.16-.73h6.53v9.52h7.65V10.56h6.8v9.52h5.15V10.56h6.67v9.48h8.94V10.51h6.49c.05,.44,.14,.88,.14,1.31,0,5.23,.05,10.45-.04,15.68-.01,.72-.46,1.73-1.03,2.08-2.08,1.29-4.25,2.47-6.49,3.45-1.09,.47-1.43,.97-1.42,2.12,.05,9.02,.03,18.03,.03,27.05v1.65h-6.37Z"/>
  <path class="cls-1" d="M12.69,92.64v-7.17h7.82v-6.66h5.47v-4.8h44.41v4.67h5.47v6.63h7.92v7.33H12.69Z"/>
  <path class="cls-1" d="M182.99,92.44v-7.15h4.74c0-2.11,.06-4.03-.02-5.95-.05-1.2,.36-1.63,1.57-1.58,1.82,.09,3.64,.02,5.6,.02v-11.29h29.99v11.2h7.16v7.47h4.75v7.27h-53.8Z"/>
  <path class="cls-1" d="M39.51,32.93c-.89-2.59-2.1-5.08-2.58-7.7-.88-4.9,1.7-11.7,7.99-13.9,5.49-1.92,11.57,1.2,13.83,7.07,1.87,4.84,1.28,8.8-2.21,14.45,.68,.03,1.27,.04,1.86,.09,1.9,.15,3.36,1.64,3.41,3.46,.05,1.87-1.45,3.6-3.41,3.61-6.94,.06-13.88,.05-20.83,0-2-.01-3.53-1.66-3.51-3.53,.02-1.91,1.5-3.43,3.51-3.55,.77-.05,1.55,0,1.95,0Z"/>
  <path class="cls-1" d="M32.96,60.03c-.02-2.16,.49-2.69,3.74-3.82v-13.49h23.02v13.53c3.56,.57,4.31,1.19,4.66,3.77h-31.42Z"/>
  <path class="cls-1" d="M26.14,71.71v-9.49h44.19v9.49H26.14Z"/>
</svg>